<?xml version="1.0" encoding="UTF-8" standalone="no"?>
<svg
   xmlns:dc="http://purl.org/dc/elements/1.1/"
   xmlns:cc="http://creativecommons.org/ns#"
   xmlns:rdf="http://www.w3.org/1999/02/22-rdf-syntax-ns#"
   xmlns:svg="http://www.w3.org/2000/svg"
   xmlns="http://www.w3.org/2000/svg"
   xmlns:sodipodi="http://sodipodi.sourceforge.net/DTD/sodipodi-0.dtd"
   xmlns:inkscape="http://www.inkscape.org/namespaces/inkscape"
   sodipodi:docname="testimonials-bg.svg"
   inkscape:version="1.0 (4035a4fb49, 2020-05-01)"
   id="svg2527"
   version="1.1"
   viewBox="0 0 338.66666 190.50001"
   height="720"
   width="1280">
  <defs
     id="defs2521" />
  <sodipodi:namedview
     inkscape:window-maximized="1"
     inkscape:window-y="-8"
     inkscape:window-x="1358"
     inkscape:window-height="801"
     inkscape:window-width="1536"
     units="px"
     showgrid="false"
     inkscape:document-rotation="0"
     inkscape:current-layer="layer1"
     inkscape:document-units="px"
     inkscape:cy="424.10192"
     inkscape:cx="454.36612"
     inkscape:zoom="0.52591067"
     inkscape:pageshadow="2"
     inkscape:pageopacity="0.0"
     borderopacity="1.0"
     bordercolor="#666666"
     pagecolor="#ffffff"
     id="base" />
  <metadata
     id="metadata2524">
    <rdf:RDF>
      <cc:Work
         rdf:about="">
        <dc:format>image/svg+xml</dc:format>
        <dc:type
           rdf:resource="http://purl.org/dc/dcmitype/StillImage" />
        <dc:title></dc:title>
      </cc:Work>
    </rdf:RDF>
  </metadata>
  <g
     id="layer1"
     inkscape:groupmode="layer"
     inkscape:label="Layer 1">
    <rect
       y="-14.363095"
       x="-12.095239"
       height="213.93452"
       width="359.83334"
       id="rect2529"
       style="opacity:1;fill:#091925;stroke:none;stroke-width:0.964999;fill-opacity:1" />
    <path
       id="path2435-18"
       d="m 166.88263,124.52643 a 164.21338,164.21338 0 0 1 17.16828,-0.8202 c 5.10725,0.023 10.30896,0.30162 15.21142,1.8489 7.76791,2.4519 16.17795,9.82478 13.06698,18.88411 -1.41261,4.11348 -5.57636,7.0874 -9.97426,6.53362 l 0.47387,-0.8255 c 3.92456,8.16663 0.009,18.04088 -8.4119,21.3323 -8.04069,3.13981 -17.65882,-0.55721 -21.84585,-8.01846 h 0.88688 c -5.03026,6.62146 -13.72394,11.89567 -22.06546,7.95496 -7.04372,-3.32661 -8.79261,-12.32959 -6.44682,-19.15927 0.21246,0.21166 0.42518,0.42333 0.63711,0.635 -9.47944,1.94389 -19.14515,-3.71132 -21.68197,-13.15165 -1.1303,-4.20846 -0.59531,-9.14744 3.00223,-12.01552 3.75494,-2.99165 9.38101,-3.62823 14.00299,-3.96769 3.34907,-0.24554 6.71615,-0.12515 10.04223,0.33072 2.21192,0.30295 6.17511,1.59094 7.61577,-0.86783 0.35189,-0.60193 1.27449,-0.0635 0.93477,0.54584 -1.82616,3.27818 -6.53627,1.69756 -9.43107,1.34196 -5.32685,-0.65616 -10.80131,-0.39502 -16.03633,0.78608 -4.92731,1.11125 -9.20137,3.58431 -9.57841,9.10511 -0.31194,4.56512 1.89548,9.19691 5.09984,12.35445 4.13276,4.07088 10.1049,5.67955 15.75479,4.54025 0.35824,-0.0706 0.77575,0.23628 0.63684,0.63844 -2.16956,6.25131 -0.83713,14.49202 5.49672,17.80117 7.85759,4.10978 16.36395,-1.1184 21.12989,-7.39061 0.22198,-0.28945 0.67998,-0.36698 0.88688,0 3.78328,6.74159 12.29254,10.29388 19.70802,7.88088 8.28172,-2.69504 12.53437,-12.20946 8.71537,-20.12235 -0.15875,-0.32809 0.0225,-0.88186 0.47361,-0.8255 5.84597,0.7231 9.94066,-4.76251 9.34773,-10.23065 -0.5932,-5.47158 -4.83288,-9.52844 -9.60279,-11.75094 -5.17737,-2.413 -11.0019,-2.89904 -16.63726,-3.02233 -6.1939,-0.13494 -12.39917,0.0749 -18.5801,0.47889 -0.53367,0.0317 -0.51859,-0.77205 0,-0.82418"
       style="opacity:0.02;fill:#ffffff;stroke-width:0.264583" />
    <g
       style="opacity:0.1"
       transform="rotate(-22.377416,21.125051,349.12286)"
       id="g3408">
      <path
         id="path3364"
         d="m 132.54864,99.271169 c -1.19398,-4.93983 -0.12304,-10.112679 2.38447,-14.477094 2.46725,-4.294076 6.33721,-7.598331 10.66395,-9.927507 9.4484,-5.086265 20.82524,-5.616419 31.33592,-5.707109 5.31898,-0.04559 10.71484,0.306093 15.81508,1.920549 4.88955,1.547919 9.65059,4.248507 11.87555,9.080937 1.98921,4.321118 1.90521,9.38703 1.12805,13.985677 -0.43688,2.586355 -1.01017,5.273569 -2.55733,7.447498 -1.46331,2.0562 -3.60868,3.55839 -5.82332,4.7103 -5.09431,2.64984 -10.94604,3.32598 -16.60772,3.49627 -1.43218,0.043 -2.8651,0.051 -4.29788,0.0491 -0.94273,-0.002 -2.14522,-0.19612 -2.78641,0.66291 -0.34027,0.45587 -0.47319,1.12426 -0.6412,1.65122 l -0.72641,2.27737 c -0.52408,1.64469 -1.0521,3.28831 -1.58195,4.93148 h 0.64104 c -0.7574,-3.34983 -1.50386,-6.70225 -2.25413,-10.05344 -0.0371,-0.16512 -0.24411,-0.28893 -0.4065,-0.2309 -6.00484,2.14856 -12.54728,2.54549 -18.77861,1.19276 -3.10557,-0.67416 -6.11756,-1.77532 -8.91096,-3.29211 -2.69405,-1.46285 -5.35164,-3.32734 -7.08747,-5.90352 -1.04284,-1.547604 -1.62995,-3.276299 -1.66869,-5.145807 -0.0433,-2.092805 0.58818,-4.10602 1.1955,-6.085503 0.0463,-0.150842 -0.18077,-0.208416 -0.23333,-0.06426 -1.19322,3.254281 -2.20522,6.610339 -0.75998,9.955155 1.20795,2.795225 3.60017,4.933915 6.1057,6.566135 5.59622,3.64621 12.35269,5.47758 19.01332,5.42153 3.85111,-0.0325 7.67489,-0.70909 11.30013,-2.00729 l -0.40605,-0.23059 c 0.75102,3.35119 1.506,6.70163 2.25003,10.05451 0.0747,0.33723 0.54474,0.29424 0.64104,0 0.49537,-1.51527 0.9918,-3.02977 1.49202,-4.54351 l 0.62555,-1.892 c 0.12517,-0.37824 0.24564,-0.75861 0.37551,-1.13534 0.29197,-0.84854 0.56525,-1.26523 1.57816,-1.36958 1.22724,-0.12609 2.53561,0.0169 3.77076,0 1.37885,-0.0187 2.7577,-0.0611 4.13442,-0.14583 5.01214,-0.30913 10.09112,-1.18335 14.57204,-3.55551 2.18501,-1.15692 4.26962,-2.65774 5.76285,-4.65288 1.59046,-2.12455 2.24852,-4.71805 2.72064,-7.286628 0.82606,-4.495507 1.04238,-9.342524 -0.49734,-13.715136 -3.60214,-10.230409 -16.20684,-12.557306 -25.72528,-12.817973 -5.80159,-0.158593 -11.70161,0.132613 -17.46477,0.809355 -5.29696,0.621745 -10.55868,1.773801 -15.41997,4.018367 -4.93999,2.281018 -9.4683,5.73035 -12.38034,10.385504 -2.90672,4.646502 -4.10724,10.365301 -2.70955,15.717255 0.058,0.221931 0.39723,0.128204 0.34331,-0.09464"
         style="fill:#ffffff;stroke-width:0.151906" />
      <path
         id="path2455"
         d="m 169.63602,111.67525 c -0.38386,-0.74222 -0.74783,-1.50144 -1.17347,-2.22057 -0.0989,-0.16694 -0.34939,-0.055 -0.30731,0.12958 0.96263,4.21889 2.29394,8.34282 3.92875,12.34844 0.10588,0.2593 0.46088,0.22345 0.48807,-0.0659 0.17986,-1.92617 0.46939,-3.8379 0.90354,-5.72367 0.38584,-1.67521 0.7732,-3.58574 1.55233,-5.12895 0.65881,-1.30473 1.97021,-0.68555 3.05938,-0.48822 a 37.292911,37.292911 0 0 0 2.50189,0.36716 c 1.75209,0.19504 3.51997,0.25976 5.28056,0.16086 6.05026,-0.34026 12.1227,-2.74099 16.0601,-7.48623 3.95457,-4.765141 4.92252,-11.38505 4.62478,-17.400675 -0.13216,-2.670963 -0.60261,-5.385067 -1.79234,-7.801735 -1.29241,-2.625543 -3.4273,-4.502647 -6.11421,-5.628728 -3.07154,-1.287551 -6.49945,-1.871329 -9.76968,-2.407402 a 82.806968,82.806968 0 0 0 -10.56172,-1.045117 c -7.17847,-0.246389 -14.39035,0.440072 -21.39034,2.053317 -3.18926,0.735073 -6.41802,1.637547 -9.22266,3.377169 -2.7899,1.730213 -5.09903,4.208858 -7.30713,6.607912 -3.88576,4.22177 -7.93117,9.664108 -6.84291,15.754473 0.91128,5.098716 5.32764,8.616256 9.93845,10.363016 6.43853,2.43886 13.4619,1.3307 20.15746,1.08309 0.84824,-0.0315 1.69664,-0.0506 2.54549,-0.0486 0.36579,0 3.42214,-0.0722 3.05893,0.69847 -0.15099,0.32052 0.3231,0.60306 0.47987,0.28027 1.05498,-2.17591 -5.0773,-1.54124 -5.88848,-1.51253 -3.58878,0.12805 -7.16921,0.49232 -10.763,0.47212 -5.79353,-0.0327 -11.9196,-1.38006 -16.04157,-5.76088 -1.93695,-2.05862 -3.11057,-4.710604 -3.12683,-7.555042 -0.0179,-3.1642 1.3427,-6.126215 3.07762,-8.704816 1.79856,-2.673547 4.03781,-5.036746 6.30774,-7.311541 2.51663,-2.521636 5.22344,-4.536671 8.59666,-5.757535 6.51418,-2.357429 13.78045,-3.248357 20.66939,-3.488827 7.12986,-0.248973 14.29252,0.426403 21.24496,2.029312 3.13656,0.723075 6.40512,1.650001 8.66927,4.082779 1.95837,2.104197 2.89928,4.931473 3.31626,7.727149 0.90733,6.080795 0.15844,13.320633 -3.43429,18.455051 -3.72397,5.32249 -10.15567,8.04099 -16.49167,8.40071 -1.75998,0.10011 -3.52908,0.0383 -5.28055,-0.15798 a 35.924847,35.924847 0 0 1 -2.73553,-0.41623 c -0.66595,-0.12699 -1.44554,-0.4144 -2.13427,-0.27464 -1.04482,0.2119 -1.31293,1.46437 -1.60444,2.32218 a 41.118967,41.118967 0 0 0 -1.3752,5.11392 c -0.31521,1.57025 -0.53319,3.15463 -0.66474,4.7504 l 0.48807,-0.0661 c -1.68038,-3.99452 -3.02505,-8.10448 -4.08384,-12.30575 l -0.30716,0.12942 c 0.44251,0.71108 0.94866,1.38554 1.43112,2.07003 0.0137,0.0197 0.044,0.003 0.0328,-0.0191"
         style="fill:#ffffff;stroke-width:0.151906" />
    </g>
    <g
       style="opacity:0.07;fill:#ffffff"
       transform="translate(57.882557,92.545885)"
       id="g3466">
      <path
         id="path3420"
         d="m 235.90159,41.611854 c 4.60243,-6.487584 12.20391,-9.457531 19.80274,-10.730177 8.60081,-1.440392 18.20704,-1.589881 26.59962,0.95541 8.05735,2.443692 15.38102,8.263467 17.09896,16.853958 1.73937,8.699236 -2.24367,17.573625 -9.51786,22.488525 -3.9616,2.674937 -8.14202,3.697023 -12.78466,4.388115 -4.22275,0.629443 -3.36894,6.552935 -2.95619,9.655174 0.28204,-0.116945 0.56436,-0.233891 0.84667,-0.351366 -2.413,-2.196571 -4.72388,-4.656138 -7.31679,-6.637073 -2.18705,-1.67005 -5.09402,-1.807898 -7.70096,-2.374635 -6.14548,-1.335088 -12.31556,-3.296709 -17.45774,-7.025746 -4.62809,-3.356769 -8.5008,-8.236479 -9.53029,-13.971588 -0.97579,-5.436658 0.67601,-11.232356 4.87309,-14.918266 0.43815,-0.38444 -0.19685,-1.001448 -0.63553,-0.635 -6.48149,5.412846 -6.85509,15.088658 -2.87364,22.0853 4.80986,8.453437 14.1269,12.701058 23.19682,14.908477 2.87179,0.6985 6.604,0.766233 9.11939,2.388393 1.39356,0.897467 2.58948,2.246842 3.80286,3.358621 1.27714,1.171046 2.54714,2.348177 3.82058,3.52425 0.28231,0.260085 0.90673,0.106363 0.84667,-0.351367 -0.15505,-1.25677 -0.24686,-2.515129 -0.22569,-3.783012 0.0177,-1.198563 -0.0881,-2.914385 0.56806,-3.971396 0.74427,-1.198562 2.67044,-0.971814 3.89096,-1.154906 1.06204,-0.15875 2.10979,-0.380206 3.14325,-0.665956 3.86662,-1.068917 7.48612,-3.000375 10.49867,-5.652029 6.06425,-5.344055 9.017,-13.62419 7.44379,-21.594233 -1.6264,-8.240448 -8.29046,-14.135365 -15.9139,-16.96085 -8.43835,-3.126846 -18.24566,-3.046148 -27.05814,-1.815571 -8.4418,1.179248 -17.06933,4.414837 -22.03265,11.722364 -0.19076,0.281252 0.25929,0.536311 0.45191,0.264584"
         style="fill:#ffffff;stroke-width:0.264583" />
      <path
         style="fill:#ffffff;stroke-width:0.264583"
         id="path2423"
         d="m 245.48083,32.846737 c -7.70467,-3.057525 -16.44862,-4.063735 -24.69092,-3.853391 -7.50702,0.191822 -15.2056,1.41552 -22.09615,4.504266 -6.30846,2.827602 -11.7983,7.479242 -14.52165,13.944865 -2.41909,5.743045 -2.52598,12.605808 1.02658,17.917053 4.03754,6.03594 11.33793,8.883915 18.27424,9.84594 l -0.38708,-0.681302 c -1.12263,3.140075 -2.52677,6.132512 -4.21138,9.009327 -0.24712,0.421216 0.15928,0.886354 0.60669,0.788723 3.43244,-0.744273 6.61379,-2.326746 9.2075,-4.709054 1.74281,-1.6002 2.95593,-3.121819 5.50731,-3.23903 2.2098,-0.10107 4.43283,0.02963 6.64739,-0.06773 A 90.625082,90.625082 0 0 0 233.6476,74.82659 c 3.29433,-0.620977 6.74423,-1.416315 9.07389,-4.005527 0.37782,-0.41963 -0.22437,-1.032934 -0.62362,-0.623623 -2.70087,2.767806 -6.77201,3.340893 -10.41797,3.953668 a 87.843253,87.843253 0 0 1 -13.59535,1.208882 c -1.68275,0.01799 -3.4798,-0.208492 -5.14694,0.07673 -1.48326,0.253471 -2.58551,1.069446 -3.64014,2.098939 -2.92444,2.85459 -6.05499,4.881298 -10.10206,5.750454 l 0.60669,0.789517 c 1.73673,-2.951162 3.18321,-6.039114 4.35187,-9.257241 0.0931,-0.256382 -0.10636,-0.640557 -0.38682,-0.681038 -5.99387,-0.862012 -12.1883,-3.022335 -16.29569,-7.681912 -4.42092,-5.014913 -4.84108,-12.038542 -2.48285,-18.095648 5.25251,-13.492692 21.44766,-17.663583 34.48659,-18.253604 8.86698,-0.401373 17.29343,1.155171 25.82598,3.39434 0.43021,0.113506 0.57494,-0.496359 0.17991,-0.653786" />
      <path
         id="path3455"
         d="m 246.23601,56.529062 c 7.57766,0.477308 15.2011,0.59981 22.78221,0.127 0.39158,-0.02461 0.39529,-0.631561 0,-0.611981 -7.59884,0.374914 -15.17994,0.499004 -22.78221,0.132291 -0.22596,-0.01138 -0.22596,0.338667 0,0.35269"
         style="fill:#ffffff;stroke-width:0.264583" />
      <path
         id="path3453"
         d="m 250.25397,49.212804 c 4.98845,0.106891 10.01183,-0.167482 15.00029,-0.265642 4.98819,-0.0979 10.02585,-0.0053 15.00346,-0.325438 0.33179,-0.02117 0.33866,-0.516995 0,-0.523875 -4.98819,-0.09657 -10.01527,0.22225 -15.00346,0.348721 -4.98846,0.126207 -10.02242,0.07805 -15.00029,0.408252 -0.22913,0.01508 -0.23283,0.352955 0,0.357982"
         style="fill:#ffffff;stroke-width:0.264583" />
      <path
         id="path3451"
         d="m 186.47853,58.261553 c 4.76779,-0.261408 9.54167,-0.371475 14.31607,-0.306916 4.77573,0.06482 9.53955,0.550333 14.30761,0.623623 0.28602,0.0042 0.36777,-0.473075 0.0696,-0.51435 -4.60164,-0.639234 -9.38821,-0.607484 -14.02768,-0.63209 -4.89294,-0.02646 -9.78324,0.132292 -14.66559,0.449527 -0.24236,0.01588 -0.24527,0.3937 0,0.380206"
         style="fill:#ffffff;stroke-width:0.264583" />
    </g>
    <g
       style="opacity:0.13;fill:#ffffff"
       transform="matrix(0.32134792,-0.23513874,0.23513874,0.32134792,269.64806,-1.8149609)"
       id="g3526">
      <path
         id="path3356"
         d="m -33.169603,82.264626 c -7.662863,-0.7747 -15.5321,-0.573087 -23.226448,-0.453496 -2.724415,0.04233 -5.528733,0.271992 -7.722394,2.064015 -1.893887,1.547812 -2.919412,3.887258 -3.466041,6.219031 -0.642409,2.742935 -0.676804,5.584296 -0.716492,8.385969 -0.05345,3.812645 0.0019,7.627405 0.168804,11.437405 0.172509,3.92377 0.450321,7.84649 0.865717,11.75253 0.296598,2.79532 0.683683,5.7494 2.386542,8.08196 3.152775,4.318 9.034197,4.46458 13.868399,3.96531 7.205134,-0.74427 14.397038,-2.00475 21.522267,-3.29115 7.580312,-1.36869 15.16327,-2.87761 22.6372203,-4.75033 2.5323271,-0.63473 4.6320604,-1.71027 5.5297916,-4.31456 1.07315,-3.11256 0.8429625,-6.85932 0.9797521,-10.10311 0.1807104,-4.28572 0.2561167,-8.57462 0.206375,-12.86378 -0.026194,-2.201069 -0.060325,-4.406636 -0.1719792,-6.605059 -0.071702,-1.419225 -0.1949979,-2.849033 -1.1324166,-3.989122 -0.9543521,-1.160463 -2.4667104,-1.785144 -3.8010041,-2.386542 -1.7028584,-0.76835 -3.4544001,-1.426369 -5.2480101,-1.952096 -3.744648,-1.096962 -7.6327,-1.595967 -11.530806,-1.571889 -0.904082,0.0056 -0.906198,1.414727 0,1.40626 6.154208,-0.05794 13.146352,1.153848 18.4493952,4.471987 1.6427979,1.028171 1.8420291,2.567252 1.9147896,4.3688 0.06985,1.737519 0.1121833,3.476096 0.1391708,5.214409 a 229.88428,229.88428 0 0 1 -0.065617,10.083802 212.05613,212.05613 0 0 1 -0.4976812,9.72502 c -0.1058333,1.42134 -0.2055813,2.88978 -0.7990417,4.20476 -0.7834312,1.73778 -2.3526749,2.37913 -4.0983958,2.82734 -6.3174559,1.61951 -12.7595309,2.87681 -19.1650929,4.08993 a 415.83689,415.83689 0 0 1 -19.823377,3.25966 c -4.85775,0.67919 -11.143985,2.06587 -15.606977,-0.74612 -2.642658,-1.66502 -3.560762,-4.60693 -3.972454,-7.54407 -0.441325,-3.15198 -0.656167,-6.35185 -0.860161,-9.52632 -0.411427,-6.40292 -0.685799,-12.93124 -0.271197,-19.340775 0.171979,-2.655359 0.598487,-5.522384 2.098939,-7.786688 2.023269,-3.054085 5.473435,-3.277393 8.826235,-3.317875 7.511521,-0.08996 15.082573,0.236802 22.582188,-0.186531 0.53975,-0.03016 0.525462,-0.775758 0,-0.828675"
         style="fill:#ffffff;stroke-width:0.264583" />
      <path
         id="path3504"
         d="m -52.735805,116.05475 c 6.274858,0.21934 12.690739,-0.43153 18.965862,-0.66727 l 9.310687,-0.34952 c 2.887398,-0.10901 5.971382,-0.0701 8.756915,-0.93027 0.450585,-0.13944 0.251354,-0.74428 -0.188648,-0.68527 -6.162146,0.82893 -12.357894,0.99007 -18.568458,1.28058 -6.049433,0.2831 -12.264496,0.18335 -18.276358,0.90011 -0.281252,0.0336 -0.297921,0.44133 0,0.45164"
         style="fill:#ffffff;stroke-width:0.264583" />
      <path
         id="path3502"
         d="m -60.617743,110.13603 c 7.389019,-0.37942 14.783594,-1.24725 22.155679,-1.88119 7.374996,-0.63447 14.809788,-1.07606 22.155415,-1.99073 0.426772,-0.0534 0.452437,-0.71411 0,-0.68871 -7.391136,0.4146 -14.785711,1.31366 -22.155415,2.01084 -7.373937,0.6977 -14.810845,1.17078 -22.155679,2.12063 -0.265112,0.0341 -0.283104,0.44371 0,0.42916"
         style="fill:#ffffff;stroke-width:0.264583" />
      <path
         id="path3500"
         d="m -56.454259,101.75482 c 6.846093,0.31776 13.857287,-0.28787 20.699676,-0.59134 6.8707,-0.3048 13.845646,-0.38259 20.685125,-1.11258 0.578115,-0.06164 0.608542,-0.935564 0,-0.92498 -6.887633,0.118533 -13.802518,0.805656 -20.685125,1.14961 -6.864614,0.34343 -13.869458,0.29078 -20.699676,1.04987 -0.269346,0.0304 -0.281517,0.41646 0,0.42942"
         style="fill:#ffffff;stroke-width:0.264583" />
      <path
         id="path2457"
         d="m -34.630897,83.326061 c 1.338791,-1.650206 1.8034,-4.261114 2.483114,-6.249722 0.861484,-2.521479 1.724025,-5.042959 2.58445,-7.564702 l -1.125008,0.146843 c 2.113492,4.860396 4.254765,9.708092 6.394979,14.556581 0.333904,0.756444 1.443831,0.101865 1.112044,-0.650081 -2.139421,-4.846637 -4.277254,-9.693275 -6.444192,-14.527477 -0.231246,-0.51726 -0.976312,-0.310091 -1.124479,0.146844 -0.786077,2.422525 -1.570302,4.845315 -2.355321,7.268104 -0.667808,2.061633 -1.936221,4.5593 -1.84785,6.74026 0.0058,0.147903 0.212196,0.268817 0.322263,0.13335"
         style="fill:#ffffff;stroke-width:0.264583" />
    </g>
    <g
       transform="rotate(32.408061,105.67363,140.46272)"
       style="opacity:0.17"
       id="g3631">
      <path
         id="path3582"
         d="m 124.42882,70.2168 c 0.37235,2.700249 -0.14706,5.362409 -1.37317,7.788999 l -0.28535,-0.28524 c 2.84806,-1.486901 4.72874,-4.434949 4.83911,-7.651248 0.004,-0.118598 0.096,-0.214146 0.21663,-0.216418 1.3418,-0.02565 2.68251,-0.07899 4.0217,-0.165885 1.29364,-0.08419 2.72503,-0.06514 3.98426,-0.390202 1.54241,-0.398209 1.59003,-2.046991 1.83263,-3.375042 a 62.464779,62.464779 0 0 0 0.62567,-4.235736 63.485734,63.485734 0 0 0 0.39063,-7.967219 c -0.0186,-1.353479 -0.0806,-2.706418 -0.18569,-4.056002 -0.0504,-0.649146 -0.0565,-1.364516 -0.22691,-1.994942 -0.2083,-0.771315 -0.68929,-1.270375 -1.3748,-1.651163 -2.25745,-1.253494 -5.09567,-0.906359 -7.56327,-0.725109 a 101.64134,101.64134 0 0 0 -8.16546,0.931464 c -1.1811,0.183631 -2.68326,0.229511 -3.67153,0.969553 -0.8462,0.633565 -1.21043,1.67973 -1.39233,2.68391 -0.21285,1.174069 -0.19066,2.395317 -0.18991,3.583453 0.001,1.382263 0.0487,2.764309 0.12715,4.144408 0.0868,1.52445 0.21079,3.046735 0.3506,4.567073 0.13991,1.522177 0.18796,3.109929 0.4917,4.609166 0.70942,3.500564 4.58341,3.336844 7.34653,2.928571 0.11362,-0.01677 0.25862,0.02684 0.28264,0.160582 l 0.22032,1.230987 c 0.052,0.291082 -0.39389,0.415523 -0.44561,0.122926 -0.0725,-0.410654 -0.14522,-0.821308 -0.21782,-1.231853 0.0941,0.05356 0.18839,0.107127 0.28264,0.160474 -2.33905,0.340426 -5.20021,0.657262 -6.96618,-1.295371 -0.82098,-0.907549 -0.98719,-2.093846 -1.10784,-3.265642 -0.16123,-1.566543 -0.31446,-3.134276 -0.44842,-4.703633 -0.27074,-3.176261 -0.48391,-6.391262 -0.32658,-9.579751 0.0933,-1.894741 0.54559,-4.152415 2.53188,-4.912584 1.35813,-0.519837 2.97261,-0.601967 4.40368,-0.802912 a 103.43274,103.43274 0 0 1 4.51751,-0.534553 c 2.75013,-0.264138 5.8078,-0.744154 8.52666,-0.04924 1.05796,0.270415 2.27802,0.771747 2.8775,1.741301 0.64297,1.04043 0.55403,2.576891 0.62999,3.75096 a 63.69869,63.69869 0 0 1 -0.0975,9.512878 64.596068,64.596068 0 0 1 -0.63334,5.059208 c -0.137,0.828232 -0.28481,1.65668 -0.46119,2.477988 -0.13223,0.616142 -0.29833,1.249165 -0.79393,1.67789 -0.93569,0.809728 -2.62342,0.703143 -3.76914,0.79512 -1.79898,0.144568 -3.60174,0.228971 -5.40624,0.261758 l 0.21642,-0.216418 c -0.11859,3.355023 -2.07144,6.472635 -5.0618,8.01126 -0.18785,0.09663 -0.38133,-0.09728 -0.28502,-0.285239 1.19516,-2.333854 1.67821,-4.942018 1.55225,-7.554077 -0.005,-0.101717 0.16665,-0.128336 0.18093,-0.02446"
         style="stroke:#ffffff;stroke-width:0.108209" />
      <path
         style="stroke:#ffffff;stroke-width:0.108209"
         id="path2429"
         d="m 124.43315,70.209766 c 0.86221,2.50147 0.0184,5.539765 -1.34342,7.693883 -0.16025,0.253751 -0.52849,0.03279 -0.39886,-0.233299 1.15892,-2.382439 1.4618,-5.049469 0.89641,-7.635125 -0.0553,-0.253318 0.25234,-0.360228 0.39821,-0.16794 0.40102,0.528493 0.56788,1.106654 0.51486,1.767595 -0.0192,0.238168 -0.32615,0.278422 -0.40957,0.0554 -0.0936,-0.249422 -0.14208,-0.472657 -0.17476,-0.734415 -0.0286,-0.227348 0.37083,-0.283616 0.40329,-0.05454 0.0585,0.413358 0.1212,0.826176 0.16957,1.240833 0.0248,0.215553 -0.34313,0.266627 -0.38112,0.05162 -0.0694,-0.393124 -0.12487,-0.788628 -0.18438,-1.183375 l 0.40318,-0.05454 a 1.9423532,1.9423532 0 0 0 0.16632,0.623609 l -0.40957,0.0554 c 0.0404,-0.569721 -0.0863,-1.049087 -0.44009,-1.503565 l 0.36434,-0.211874 c 0.62523,2.697869 0.29282,5.496156 -0.91783,7.984208 l -0.39886,-0.233299 c 0.69492,-1.099512 1.19085,-2.303555 1.44871,-3.579989 0.26327,-1.30392 0.18958,-2.548865 0.15852,-3.862199 -0.002,-0.08062 0.1107,-0.08949 0.13505,-0.0184" />
      <path
         id="path2431"
         d="m 123.83421,70.521625 c -1.87515,0.343997 -4.00774,0.08862 -5.61735,-1.000718 -1.6701,-1.130244 -1.80201,-3.441374 -2.03833,-5.27238 -0.30645,-2.374648 -0.34919,-4.773103 -0.29725,-7.164307 0.0458,-2.100988 0.0589,-4.248722 0.38977,-6.328176 0.28231,-1.773222 0.84154,-3.517878 2.35939,-4.606461 0.19791,-0.14197 0.39258,0.189149 0.19153,0.327873 -1.7755,1.224927 -2.15726,3.442456 -2.28062,5.449843 -0.15344,2.493787 -0.23676,5.011488 -0.20224,7.509928 0.0359,2.607298 0.2083,5.291208 0.8924,7.818323 0.72413,2.675686 4.19905,3.200825 6.56807,3.009403 0.14544,-0.01169 0.17985,0.230161 0.0346,0.256672"
         style="stroke:#ffffff;stroke-width:0.108209" />
    </g>
    <g
       transform="matrix(0.95883142,-0.28397588,-0.28397588,-0.95883142,2.7076029,298.39321)"
       style="opacity:0.1"
       id="g3659">
      <path
         id="path2421"
         d="m 110.53519,133.96657 c -7.11365,-4.99564 -16.321182,-1.2394 -22.121262,3.98161 -2.89718,2.60725 -5.22684,6.06921 -5.28146,10.0874 -0.0247,1.82703 0.43541,3.68756 1.48384,5.19906 1.08386,1.56339 2.68565,2.67273 4.40606,3.43614 4.0303,1.78887 8.67315,2.11503 13.026182,1.96407 4.40835,-0.15234 8.8944,-0.7009 13.11909,-2.00681 3.84139,-1.18694 7.85158,-3.08403 10.50522,-6.1987 1.13826,-1.33631 2.00543,-2.93169 2.20028,-4.69622 0.20354,-1.84372 -0.39507,-3.6799 -1.45093,-5.18078 -2.42599,-3.45282 -6.68668,-4.70079 -10.65721,-5.31643 -4.62,-0.71461 -9.3761,-0.6369 -13.96204,0.28342 -1.17289,0.23622 -2.330232,0.53633 -3.476142,0.87769 -0.21417,0.064 -0.12434,0.39462 0.0924,0.33519 4.228582,-1.15803 8.622292,-1.68978 13.004922,-1.48568 4.07293,0.19051 8.67785,0.77564 12.12953,3.12381 3.31191,2.25514 4.99369,6.37538 2.96163,10.05837 -1.87492,3.39648 -5.64191,5.55563 -9.13667,6.9453 -3.71546,1.47654 -7.69078,2.1988 -11.65731,2.57514 -4.35955,0.41301 -8.824692,0.46936 -13.109382,-0.55153 -3.68904,-0.87918 -7.54689,-2.71536 -8.70263,-6.63606 -1.12809,-3.82618 0.43747,-7.78037 2.94141,-10.68612 5.44763,-6.32372 15.870562,-11.22028 23.554822,-5.88785 0.13634,0.0944 0.264,-0.12651 0.1296,-0.22102"
         style="opacity:1;fill:#ffffff;stroke-width:0.114283" />
      <path
         style="fill:#ffffff;stroke-width:0.264583"
         id="path2459"
         d="m 104.04316,127.00144 c -1.48405,0.67019 -4.131733,0.74216 -4.985808,-0.94694 -0.933979,-1.84653 1.001708,-3.76581 2.758548,-3.95922 1.96797,-0.21723 4.17883,1.14167 4.36827,3.22765 0.17859,1.97326 -1.57374,3.87588 -3.56976,3.67691 -0.41381,-0.0413 -0.42545,-0.68765 0,-0.65616 1.68672,0.12435 3.23956,-1.4785 2.82972,-3.20755 -0.33655,-1.42134 -1.90421,-2.31669 -3.29644,-2.26298 -1.59227,0.0608 -3.804713,2.2606 -1.8251,3.55997 1.06839,0.70088 2.45375,0.19394 3.60362,0.13599 0.22067,-0.0111 0.32915,0.33655 0.11695,0.43233 m -0.13996,-8.41428 c -1.30096,0.0836 -1.77615,-1.83091 -1.18216,-2.72653 0.77179,-1.1639 2.58868,-1.05701 3.43932,-0.0624 0.48736,0.57044 0.69215,1.34673 0.63023,2.08677 -0.045,0.54425 -0.21272,1.36366 -0.89323,1.39541 -1.04299,0.0484 -3.17526,-1.59411 -2.03861,-2.64689 0.17965,-0.16616 0.51779,-0.006 0.43206,0.25162 -0.16563,0.50059 -0.009,0.8427 0.3765,1.19988 0.30083,0.2794 0.91282,0.75936 1.2962,0.52282 0.43285,-0.26749 0.36539,-1.07685 0.25982,-1.52612 -0.11245,-0.48021 -0.37915,-0.95937 -0.79852,-1.23718 -0.70643,-0.46885 -1.90473,-0.41487 -2.34579,0.40375 -0.47202,0.87709 0.17568,1.62401 0.92498,1.96612 0.19526,0.0892 0.078,0.36116 -0.1008,0.37306 m 22.3012,35.64731 c 0.35719,-0.97499 0.98689,-1.84335 1.42081,-2.79082 0.5707,-1.24619 0.99563,-2.56461 1.27608,-3.90552 0.56674,-2.70721 0.32571,-5.21758 -0.0952,-7.91474 -0.0757,-0.48419 0.60193,-0.69797 0.75089,-0.20691 0.75565,2.49264 0.63527,5.3512 0.12647,7.8793 -0.46275,2.29817 -1.41076,5.48481 -3.25173,7.07099 -0.0931,0.0804 -0.27834,0.006 -0.22727,-0.1323 m -18.65392,-39.8862 c -1.45257,-0.0878 -1.30387,-2.77071 0.25373,-2.60376 0.71411,0.0767 1.34091,0.78581 1.30519,1.50786 -0.046,0.93821 -1.26576,1.15993 -1.99125,0.90593 -0.31274,-0.10901 -0.17727,-0.61039 0.13758,-0.499 0.4699,0.16721 1.47373,0.10583 1.33403,-0.61834 -0.0818,-0.4265 -0.52229,-0.84216 -0.97155,-0.80459 -0.44159,0.037 -0.64796,0.46778 -0.62865,0.86915 0.0217,0.45059 0.2622,0.72046 0.65246,0.90488 0.16193,0.0767 0.0836,0.34846 -0.0915,0.33787" />
    </g>
    <path
       style="opacity:0.02;fill:#ffffff;stroke-width:0.264583"
       d="m 166.25759,72.379731 a 164.21338,164.21338 0 0 0 17.16828,0.8202 c 5.10725,-0.023 10.30896,-0.30162 15.21142,-1.8489 7.76791,-2.4519 16.17795,-9.82478 13.06698,-18.88411 -1.41261,-4.11348 -5.57636,-7.0874 -9.97426,-6.53362 l 0.47387,0.8255 c 3.92456,-8.16663 0.009,-18.04088 -8.4119,-21.3323 -8.04069,-3.13981 -17.65882,0.55721 -21.84585,8.01846 h 0.88688 c -5.03026,-6.62146 -13.72394,-11.89567 -22.06546,-7.95496 -7.04373,3.32661 -8.79263,12.32959 -6.44683,19.15927 0.21246,-0.21166 0.42518,-0.42333 0.63711,-0.635 -9.47949,-1.94389 -19.14525,3.71132 -21.68207,13.15165 -1.1303,4.20846 -0.59531,9.14744 3.00223,12.01552 3.75496,2.99165 9.38106,3.62823 14.00307,3.96769 3.34909,0.24554 6.71618,0.12515 10.04226,-0.33072 2.21192,-0.30295 6.17511,-1.59094 7.61577,0.86783 0.35189,0.60193 1.27449,0.0635 0.93477,-0.54584 -1.82616,-3.27818 -6.53627,-1.69756 -9.43107,-1.34196 -5.32686,0.65616 -10.80135,0.39502 -16.0364,-0.78608 -4.92734,-1.11125 -9.20141,-3.58431 -9.57845,-9.10511 -0.31194,-4.56512 1.89548,-9.19691 5.09985,-12.35445 4.13279,-4.07088 10.10496,-5.67955 15.75488,-4.54025 0.35824,0.0706 0.77576,-0.23628 0.63685,-0.63844 -2.16958,-6.25131 -0.83714,-14.49202 5.49672,-17.80117 7.85759,-4.10978 16.36395,1.1184 21.12989,7.39061 0.22198,0.28945 0.67998,0.36698 0.88688,0 3.78328,-6.74159 12.29254,-10.29388 19.70802,-7.88088 8.28172,2.69504 12.53437,12.20946 8.71537,20.12235 -0.15875,0.32809 0.0225,0.88186 0.47361,0.8255 5.84597,-0.7231 9.94066,4.76251 9.34773,10.23065 -0.5932,5.47158 -4.83288,9.52844 -9.60279,11.75094 -5.17737,2.413 -11.0019,2.89904 -16.63726,3.02233 -6.1939,0.13494 -12.39917,-0.0749 -18.5801,-0.47889 -0.53367,-0.0317 -0.51859,0.77205 0,0.82418"
       id="path2435" />
    <path
       id="path2435-1"
       d="m 262.32277,117.91904 a 164.21338,164.21338 0 0 0 17.16828,0.8202 c 5.10725,-0.023 10.30896,-0.30162 15.21142,-1.8489 7.76791,-2.4519 16.17795,-9.82478 13.06698,-18.884107 -1.41261,-4.11348 -5.57636,-7.0874 -9.97426,-6.53362 l 0.47387,0.8255 c 3.92456,-8.16663 0.009,-18.04088 -8.4119,-21.3323 -8.04069,-3.13981 -17.65882,0.55721 -21.84585,8.01846 h 0.88688 c -5.03026,-6.62146 -13.72394,-11.89567 -22.06546,-7.95496 -7.04373,3.32661 -8.79263,12.32959 -6.44683,19.15927 0.21246,-0.21166 0.42518,-0.42333 0.63711,-0.635 -9.47949,-1.94389 -19.14525,3.71132 -21.68207,13.151647 -1.1303,4.20846 -0.59531,9.14744 3.00223,12.01552 3.75496,2.99165 9.38106,3.62823 14.00307,3.96769 3.34909,0.24554 6.71618,0.12515 10.04226,-0.33072 2.21192,-0.30295 6.17511,-1.59094 7.61577,0.86783 0.35189,0.60193 1.27449,0.0635 0.93477,-0.54584 -1.82616,-3.27818 -6.53627,-1.69756 -9.43107,-1.34196 -5.32686,0.65616 -10.80135,0.39502 -16.0364,-0.78608 -4.92734,-1.11125 -9.20141,-3.58431 -9.57845,-9.10511 -0.31194,-4.56512 1.89548,-9.196907 5.09985,-12.354447 4.13279,-4.07088 10.10496,-5.67955 15.75488,-4.54025 0.35824,0.0706 0.77576,-0.23628 0.63685,-0.63844 -2.16958,-6.25131 -0.83714,-14.49202 5.49672,-17.80117 7.85759,-4.10978 16.36395,1.1184 21.12989,7.39061 0.22198,0.28945 0.67998,0.36698 0.88688,0 3.78328,-6.74159 12.29254,-10.29388 19.70802,-7.88088 8.28172,2.69504 12.53437,12.20946 8.71537,20.12235 -0.15875,0.32809 0.0225,0.88186 0.47361,0.8255 5.84597,-0.7231 9.94066,4.76251 9.34773,10.230647 -0.5932,5.47158 -4.83288,9.52844 -9.60279,11.75094 -5.17737,2.413 -11.0019,2.89904 -16.63726,3.02233 -6.1939,0.13494 -12.39917,-0.0749 -18.5801,-0.47889 -0.53367,-0.0317 -0.51859,0.77205 0,0.82418"
       style="opacity:0.02;fill:#ffffff;stroke-width:0.264583" />
  </g>
</svg>
